# xmcd
# 
# Track frame offsets:
#     182
#     9740
#     21782
#     31700
#     45805
#     55540
#     66670
#     79992
#     89005
#     100690
#     112835
#     126402
#     143880
#     156887
#     167310
#     179270
#     188750
#     200862
#     212232
#     222630
#     232080
#     244710
#     251167
#     264870
#     274242
# 
# Disc length: 3790
# 
# Revision: 6
# Processed by: cddbd v1.5.2PL0 Copyright (c) Steve Scherf et al.
# Submitted via: fre:ac v1.0.17
# 
DISCID=670ecc19
DTITLE=Various Artist - Essential Country Vol 4 CD1
DYEAR=1995
DGENRE=Country
TTITLE0=Bobby Lewis - Hello Mary Lou
TTITLE1=Skeeter Davis - The End Of The World
TTITLE2=Johnny Cash and The Tennessee Two - Get Rhythm
TTITLE3=Barbara Fairchild - Teddy Bear Song
TTITLE4=Bonnie Guitar - A Woman In Love
TTITLE5=Stonewall Jackson - It's Such A Pretty World Today
TTITLE6=Wanda Jackson - I Fall To Pieces
TTITLE7=Bob Luman - Let's Think About Living
TTITLE8=Johnny Paycheck - Song And Dance Man
TTITLE9=Jeannie C. Riley - Country Girl
TTITLE10=David Houston - Almost Persuaded
TTITLE11=Charlie Rich - Let's Take It Nice And Easy
TTITLE12=Tammy Wynette - Till I Can Make It On My Own
TTITLE13=Boxcar Willie - Wabash Cannonball
TTITLE14=Anne Murray - Last Thing On My Mind
TTITLE15=Jean Shepard - Second Fiddle To An Old Guitar
TTITLE16=Roy Acuff - Take My Hand
TTITLE17=Connie Smith - Just One Time
TTITLE18=Sonny James - Passing Through
TTITLE19=Freddy Fender - Wasted Days And Wasted Nights
TTITLE20=Moe Bandy - Rodeo Romeo
TTITLE21=George Jones - Chicken Reel
TTITLE22=Barbara Mandrell - Try To Remember
TTITLE23=Leroy Van Dyke - The Auctioneer
TTITLE24=Glen Campbell - Gentle On My Mind
EXTD=YEAR: 1995
EXTT0=
EXTT1=
EXTT2=
EXTT3=
EXTT4=
EXTT5=
EXTT6=
EXTT7=
EXTT8=
EXTT9=
EXTT10=
EXTT11=
EXTT12=
EXTT13=
EXTT14=
EXTT15=
EXTT16=
EXTT17=
EXTT18=
EXTT19=
EXTT20=
EXTT21=
EXTT22=
EXTT23=
EXTT24=
PLAYORDER=
